<svg width="25" height="24" viewBox="0 0 25 24" fill="none" xmlns="http://www.w3.org/2000/svg">
<path d="M2.5 9.65356L11.5033 2.45092C12.2548 1.84969 13.3227 1.84969 14.0742 2.45092L23.0775 9.65356" stroke="#7D848D" stroke-width="1.5" stroke-linecap="round" stroke-linejoin="round"/>
<path d="M10.1937 3.53106L6.07816 6.87491C5.33094 7.48203 4.95732 7.78559 4.75759 8.20522C4.55786 8.62484 4.55786 9.10623 4.55786 10.069V13.769C4.55786 17.6491 4.55786 19.5892 5.76326 20.7945C6.96867 22 8.90873 22 12.7889 22C16.669 22 18.6091 22 19.8144 20.7945C21.0199 19.5892 21.0199 17.6491 21.0199 13.769V10.069C21.0199 9.10623 21.0199 8.62484 20.8202 8.20522C20.6204 7.78559 20.2468 7.48203 19.4996 6.87491L15.3841 3.53106C14.141 2.52106 13.5195 2.01605 12.7889 2.01605C12.0583 2.01605 11.4367 2.52106 10.1937 3.53106Z" stroke="#7D848D" stroke-width="1.5"/>
<path d="M10.4736 16.084H15.1036" stroke="#7D848D" stroke-width="1.5" stroke-linecap="round"/>
</svg>
