<svg width="16" height="16" viewBox="0 0 16 16" fill="none" xmlns="http://www.w3.org/2000/svg">
<g clip-path="url(#clip0_1_956)">
<circle cx="8" cy="7.33336" r="2" stroke="#7D848D" stroke-width="1.5"/>
<path d="M13.25 7.25928C13.25 8.64504 12.4338 10.3295 11.2708 11.7063C10.6993 12.3829 10.0723 12.9503 9.47496 13.3427C8.86236 13.7451 8.35263 13.9167 8 13.9167V15.4167C8.77237 15.4167 9.57514 15.0715 10.2985 14.5964C11.0371 14.1112 11.7695 13.4404 12.4167 12.6743C13.6912 11.1655 14.75 9.14632 14.75 7.25928H13.25ZM8 13.9167C7.64737 13.9167 7.13764 13.7451 6.52504 13.3427C5.92774 12.9503 5.30072 12.3829 4.72919 11.7063C3.56618 10.3295 2.75 8.64504 2.75 7.25928H1.25C1.25 9.14632 2.30882 11.1655 3.58331 12.6743C4.23053 13.4404 4.96289 14.1112 5.70152 14.5964C6.42486 15.0715 7.22763 15.4167 8 15.4167V13.9167ZM2.75 7.25928C2.75 4.40946 5.09169 2.08336 8 2.08336V0.583359C4.28089 0.583359 1.25 3.56352 1.25 7.25928H2.75ZM8 2.08336C10.9083 2.08336 13.25 4.40946 13.25 7.25928H14.75C14.75 3.56352 11.7191 0.583359 8 0.583359V2.08336Z" fill="#7D848D"/>
</g>
<defs>
<clipPath id="clip0_1_956">
<rect width="16" height="16" fill="white"/>
</clipPath>
</defs>
</svg>
