<svg width="20" height="20" viewBox="0 0 20 20" fill="none" xmlns="http://www.w3.org/2000/svg">
<path d="M1 18.25C0.585786 18.25 0.25 18.5858 0.25 19C0.25 19.4142 0.585786 19.75 1 19.75V18.25ZM19 19.75C19.4142 19.75 19.75 19.4142 19.75 19C19.75 18.5858 19.4142 18.25 19 18.25V19.75ZM5.31963 15.9881L5.21356 15.2456H5.21356L5.31963 15.9881ZM4.01193 14.6804L3.26946 14.5743L4.01193 14.6804ZM5.15616 9.93996L4.62583 9.40963H4.62583L5.15616 9.93996ZM4.50231 11.2477L5.24478 11.3537L4.50231 11.2477ZM10.06 14.8438L10.5904 15.3742L10.06 14.8438ZM8.75234 15.4977L8.8584 16.2401H8.85841L8.75234 15.4977ZM18.3229 3.31171L17.7926 3.84204V3.84204L18.3229 3.31171ZM18.3229 6.58096L17.7926 6.05063L18.3229 6.58096ZM16.6883 1.67708L17.2186 1.14675V1.14675L16.6883 1.67708ZM13.419 1.67708L13.9494 2.20741L13.419 1.67708ZM12.5344 3.31171C12.5344 2.8975 12.1986 2.56171 11.7844 2.56171C11.3702 2.56171 11.0344 2.8975 11.0344 3.31171H12.5344ZM16.6883 8.96559C17.1025 8.96559 17.4383 8.6298 17.4383 8.21559C17.4383 7.80137 17.1025 7.46559 16.6883 7.46559V8.96559ZM1 19.75H19V18.25H1V19.75ZM16.158 2.20741L17.7926 3.84204L18.8532 2.78138L17.2186 1.14675L16.158 2.20741ZM17.7926 6.05063L9.52971 14.3135L10.5904 15.3742L18.8532 7.11129L17.7926 6.05063ZM5.68649 10.4703L13.9494 2.20741L12.8887 1.14675L4.62583 9.40963L5.68649 10.4703ZM8.64627 14.7552L5.21356 15.2456L5.42569 16.7305L8.8584 16.2401L8.64627 14.7552ZM4.75439 14.7864L5.24478 11.3537L3.75985 11.1416L3.26946 14.5743L4.75439 14.7864ZM5.21356 15.2456C4.94571 15.2839 4.71612 15.0543 4.75439 14.7864L3.26946 14.5743C3.08978 15.8321 4.16789 16.9102 5.42569 16.7305L5.21356 15.2456ZM4.62583 9.40963C4.1574 9.87806 3.85354 10.4858 3.75985 11.1416L5.24478 11.3537C5.29256 11.0192 5.44756 10.7092 5.68649 10.4703L4.62583 9.40963ZM9.52971 14.3135C9.29077 14.5524 8.98078 14.7074 8.64627 14.7552L8.85841 16.2401C9.51421 16.1465 10.1219 15.8426 10.5904 15.3742L9.52971 14.3135ZM17.7926 3.84204C18.4025 4.45192 18.4025 5.44074 17.7926 6.05063L18.8532 7.11129C20.0489 5.91562 20.0489 3.97705 18.8532 2.78138L17.7926 3.84204ZM17.2186 1.14675C16.0229 -0.0489179 14.0844 -0.0489181 12.8887 1.14675L13.9494 2.20741C14.5593 1.59753 15.5481 1.59753 16.158 2.20741L17.2186 1.14675ZM11.7844 3.31171C11.0344 3.31171 11.0344 3.31209 11.0344 3.31246C11.0344 3.3126 11.0344 3.31299 11.0344 3.31326C11.0344 3.3138 11.0344 3.31436 11.0344 3.31495C11.0344 3.31614 11.0344 3.31742 11.0344 3.31881C11.0345 3.32158 11.0345 3.32477 11.0346 3.32836C11.0347 3.33553 11.0349 3.34431 11.0352 3.35465C11.0359 3.37533 11.0371 3.40226 11.0393 3.43503C11.0436 3.50055 11.0519 3.58957 11.0675 3.69873C11.0987 3.91692 11.1593 4.21669 11.2772 4.57052C11.514 5.28079 11.9798 6.20236 12.8887 7.11129L13.9494 6.05063C13.2237 5.32494 12.8722 4.61189 12.7003 4.09618C12.6139 3.83703 12.5723 3.62598 12.5524 3.4866C12.5425 3.41697 12.538 3.36552 12.5359 3.33525C12.5349 3.32013 12.5346 3.31035 12.5344 3.30629C12.5344 3.30426 12.5344 3.30366 12.5344 3.30455C12.5344 3.30499 12.5344 3.30581 12.5344 3.307C12.5344 3.30759 12.5344 3.30828 12.5344 3.30907C12.5344 3.30946 12.5344 3.30988 12.5344 3.31032C12.5344 3.31054 12.5344 3.31089 12.5344 3.311C12.5344 3.31135 12.5344 3.31171 11.7844 3.31171ZM12.8887 7.11129C13.7976 8.02023 14.7192 8.48602 15.4295 8.72277C15.7833 8.84072 16.0831 8.90134 16.3013 8.93251C16.4104 8.9481 16.4995 8.95637 16.565 8.96073C16.5977 8.96292 16.6247 8.96413 16.6453 8.9648C16.6557 8.96513 16.6645 8.96533 16.6716 8.96544C16.6752 8.9655 16.6784 8.96554 16.6812 8.96556C16.6826 8.96557 16.6839 8.96558 16.685 8.96558C16.6856 8.96558 16.6862 8.96559 16.6867 8.96559C16.687 8.96559 16.6874 8.96559 16.6875 8.96559C16.6879 8.96559 16.6883 8.96559 16.6883 8.21559C16.6883 7.46559 16.6886 7.46559 16.689 7.46559C16.6891 7.46559 16.6895 7.46559 16.6897 7.46559C16.6901 7.46559 16.6905 7.46559 16.6909 7.46559C16.6917 7.4656 16.6924 7.4656 16.693 7.46561C16.6942 7.46561 16.695 7.46563 16.6955 7.46563C16.6963 7.46565 16.6957 7.46564 16.6937 7.46558C16.6896 7.46545 16.6799 7.46507 16.6647 7.46406C16.6345 7.46204 16.583 7.45753 16.5134 7.44759C16.374 7.42767 16.163 7.38613 15.9038 7.29975C15.3881 7.12785 14.6751 6.77632 13.9494 6.05063L12.8887 7.11129Z" fill="#0D6EFD"/>
</svg>
